<svg width="130" height="44" viewBox="0 0 130 44" fill="none" xmlns="http://www.w3.org/2000/svg">
<path d="M17.0002 12.5C17.0002 17.1944 13.1947 21 8.50024 21C3.80582 21 0.000244141 17.1944 0.000244141 12.5C0.000244141 7.80558 3.80582 4 8.50024 4C13.1947 4 17.0002 7.80558 17.0002 12.5Z" fill="white"/>
<path d="M36.0002 12.5C36.0002 17.1944 32.1947 21 27.5002 21C22.8058 21 19.0002 17.1944 19.0002 12.5C19.0002 7.80558 22.8058 4 27.5002 4C32.1947 4 36.0002 7.80558 36.0002 12.5Z" fill="#5C3DF5"/>
<path d="M36 31.5C36 36.1944 32.1944 40 27.5 40C22.8056 40 19 36.1944 19 31.5C19 26.8056 22.8056 23 27.5 23C32.1944 23 36 26.8056 36 31.5Z" fill="white"/>
<path d="M17 31.5C17 36.1944 13.1944 40 8.5 40C3.80558 40 0 36.1944 0 31.5C0 26.8056 3.80558 23 8.5 23C13.1944 23 17 26.8056 17 31.5Z" fill="#5C3DF5"/>
<path d="M45.7502 32V14H48.7627V22.35L55.9502 14H59.6502L51.9127 22.825L60.1752 32H56.3502L48.7627 23.6V32H45.7502ZM66.1483 32.375C64.7983 32.375 63.6191 32.0708 62.6108 31.4625C61.6025 30.8542 60.8191 30.0167 60.2608 28.95C59.7108 27.875 59.4358 26.6417 59.4358 25.25C59.4358 23.8333 59.7191 22.5917 60.2858 21.525C60.8525 20.4583 61.64 19.625 62.6483 19.025C63.6566 18.425 64.8233 18.125 66.1483 18.125C67.5066 18.125 68.69 18.4292 69.6983 19.0375C70.7066 19.6458 71.49 20.4875 72.0483 21.5625C72.6066 22.6292 72.8858 23.8583 72.8858 25.25C72.8858 26.65 72.6025 27.8875 72.0358 28.9625C71.4775 30.0292 70.6941 30.8667 69.6858 31.475C68.6775 32.075 67.4983 32.375 66.1483 32.375ZM66.1483 29.55C67.3483 29.55 68.24 29.15 68.8233 28.35C69.4066 27.55 69.6983 26.5167 69.6983 25.25C69.6983 23.9417 69.4025 22.9 68.8108 22.125C68.2191 21.3417 67.3316 20.95 66.1483 20.95C65.34 20.95 64.6733 21.1333 64.1483 21.5C63.6316 21.8583 63.2483 22.3625 62.9983 23.0125C62.7483 23.6542 62.6233 24.4 62.6233 25.25C62.6233 26.5583 62.9191 27.6042 63.5108 28.3875C64.1108 29.1625 64.99 29.55 66.1483 29.55ZM74.8899 32V18.5H77.5524V21.7875L77.2274 21.3625C77.3941 20.9125 77.6149 20.5042 77.8899 20.1375C78.1732 19.7625 78.5107 19.4542 78.9024 19.2125C79.2357 18.9875 79.6024 18.8125 80.0024 18.6875C80.4107 18.5542 80.8274 18.475 81.2524 18.45C81.6774 18.4167 82.0899 18.4333 82.4899 18.5V21.3125C82.0899 21.1958 81.6274 21.1583 81.1024 21.2C80.5857 21.2417 80.1191 21.3875 79.7024 21.6375C79.2857 21.8625 78.9441 22.15 78.6774 22.5C78.4191 22.85 78.2274 23.25 78.1024 23.7C77.9774 24.1417 77.9149 24.6208 77.9149 25.1375V32H74.8899ZM90.0186 32.375C88.6519 32.375 87.4519 32.0792 86.4186 31.4875C85.3853 30.8958 84.5769 30.075 83.9936 29.025C83.4186 27.975 83.1311 26.7667 83.1311 25.4C83.1311 23.925 83.4144 22.6458 83.9811 21.5625C84.5478 20.4708 85.3353 19.625 86.3436 19.025C87.3519 18.425 88.5186 18.125 89.8436 18.125C91.2436 18.125 92.4311 18.4542 93.4061 19.1125C94.3894 19.7625 95.1186 20.6833 95.5936 21.875C96.0686 23.0667 96.2478 24.4708 96.1311 26.0875H93.1436V24.9875C93.1353 23.5208 92.8769 22.45 92.3686 21.775C91.8603 21.1 91.0603 20.7625 89.9686 20.7625C88.7353 20.7625 87.8186 21.1458 87.2186 21.9125C86.6186 22.6708 86.3186 23.7833 86.3186 25.25C86.3186 26.6167 86.6186 27.675 87.2186 28.425C87.8186 29.175 88.6936 29.55 89.8436 29.55C90.5853 29.55 91.2228 29.3875 91.7561 29.0625C92.2978 28.7292 92.7144 28.25 93.0061 27.625L95.9811 28.525C95.4644 29.7417 94.6644 30.6875 93.5811 31.3625C92.5061 32.0375 91.3186 32.375 90.0186 32.375ZM85.3686 26.0875V23.8125H94.6561V26.0875H85.3686ZM107.141 32V25.5C107.141 25.075 107.112 24.6042 107.054 24.0875C106.996 23.5708 106.858 23.075 106.641 22.6C106.433 22.1167 106.116 21.7208 105.691 21.4125C105.275 21.1042 104.708 20.95 103.991 20.95C103.608 20.95 103.229 21.0125 102.854 21.1375C102.479 21.2625 102.137 21.4792 101.829 21.7875C101.529 22.0875 101.287 22.5042 101.104 23.0375C100.921 23.5625 100.829 24.2375 100.829 25.0625L99.0415 24.3C99.0415 23.15 99.2623 22.1083 99.704 21.175C100.154 20.2417 100.812 19.5 101.679 18.95C102.546 18.3917 103.612 18.1125 104.879 18.1125C105.879 18.1125 106.704 18.2792 107.354 18.6125C108.004 18.9458 108.521 19.3708 108.904 19.8875C109.287 20.4042 109.571 20.9542 109.754 21.5375C109.937 22.1208 110.054 22.675 110.104 23.2C110.162 23.7167 110.191 24.1375 110.191 24.4625V32H107.141ZM97.779 32V18.5H100.466V22.6875H100.829V32H97.779ZM120.616 32C119.724 32.1667 118.849 32.2375 117.991 32.2125C117.141 32.1958 116.378 32.0417 115.703 31.75C115.028 31.45 114.516 30.9792 114.166 30.3375C113.858 29.7542 113.695 29.1583 113.678 28.55C113.662 27.9417 113.653 27.2542 113.653 26.4875V14.75H116.653V26.3125C116.653 26.8542 116.658 27.3292 116.666 27.7375C116.683 28.1458 116.77 28.4792 116.928 28.7375C117.228 29.2375 117.708 29.5167 118.366 29.575C119.024 29.6333 119.774 29.6 120.616 29.475V32ZM111.203 20.8625V18.5H120.616V20.8625H111.203Z" fill="white"/>
</svg>
