<svg width="36" height="36" viewBox="0 0 36 36" fill="none" xmlns="http://www.w3.org/2000/svg">
<path d="M17.0005 8.49999C17.0005 13.1944 13.1949 17 8.50049 17C3.80607 17 0.000488281 13.1944 0.000488281 8.49999C0.000488281 3.80558 3.80607 0 8.50049 0C13.1949 0 17.0005 3.80558 17.0005 8.49999Z" fill="black"/>
<path d="M36.0005 8.49999C36.0005 13.1944 32.1949 17 27.5005 17C22.8061 17 19.0005 13.1944 19.0005 8.49999C19.0005 3.80558 22.8061 0 27.5005 0C32.1949 0 36.0005 3.80558 36.0005 8.49999Z" fill="#5C3DF5"/>
<path d="M36.0002 27.5C36.0002 32.1944 32.1947 36 27.5002 36C22.8058 36 19.0002 32.1944 19.0002 27.5C19.0002 22.8056 22.8058 19 27.5002 19C32.1947 19 36.0002 22.8056 36.0002 27.5Z" fill="black"/>
<path d="M17.0002 27.5C17.0002 32.1944 13.1947 36 8.50024 36C3.80582 36 0.000244141 32.1944 0.000244141 27.5C0.000244141 22.8056 3.80582 19 8.50024 19C13.1947 19 17.0002 22.8056 17.0002 27.5Z" fill="#5C3DF5"/>
</svg>
